<?xml version="1.0" encoding="UTF-8" standalone="no"?><!DOCTYPE svg PUBLIC "-//W3C//DTD SVG 1.1//EN" "http://www.w3.org/Graphics/SVG/1.1/DTD/svg11.dtd"><!-- Generated by graphviz version 2.40.1 (20161225.0304)
 --><!-- Title: dependency&#45;cruiser output Pages: 1 --><svg xmlns="http://www.w3.org/2000/svg" xmlns:xlink="http://www.w3.org/1999/xlink" width="838pt" height="511pt" viewBox="0.00 0.00 838.07 510.52">
<g id="graph0" class="graph" transform="scale(1 1) rotate(0) translate(4 506.5214)">
<title>dependency-cruiser output</title>
<polygon fill="#ffffff" stroke="transparent" points="-4,4 -4,-506.5214 834.0651,-506.5214 834.0651,4 -4,4"/>
<g id="clust1" class="cluster">
<title>cluster_src</title>
<path fill="#ffffff" stroke="#000000" stroke-width="2" d="M20,-8C20,-8 810.0651,-8 810.0651,-8 816.0651,-8 822.0651,-14 822.0651,-20 822.0651,-20 822.0651,-474 822.0651,-474 822.0651,-480 816.0651,-486 810.0651,-486 810.0651,-486 20,-486 20,-486 14,-486 8,-480 8,-474 8,-474 8,-20 8,-20 8,-14 14,-8 20,-8"/>
<text text-anchor="middle" x="415.0325" y="-473.9" font-family="Helvetica,sans-Serif" font-weight="bold" font-size="9.00" fill="#000000">src</text>
</g>
<g id="clust2" class="cluster">
<title>cluster_src/actions</title>
<path fill="#ffffff" stroke="#000000" stroke-width="2" d="M310.018,-227C310.018,-227 546.0539,-227 546.0539,-227 552.0539,-227 558.0539,-233 558.0539,-239 558.0539,-239 558.0539,-423 558.0539,-423 558.0539,-429 552.0539,-435 546.0539,-435 546.0539,-435 310.018,-435 310.018,-435 304.018,-435 298.018,-429 298.018,-423 298.018,-423 298.018,-239 298.018,-239 298.018,-233 304.018,-227 310.018,-227"/>
<text text-anchor="middle" x="428.0359" y="-422.9" font-family="Helvetica,sans-Serif" font-weight="bold" font-size="9.00" fill="#000000">actions</text>
</g>
<g id="clust3" class="cluster">
<title>cluster_src/components</title>
<path fill="#ffffff" stroke="#000000" stroke-width="2" d="M32.7503,-104C32.7503,-104 513.2952,-104 513.2952,-104 519.2952,-104 525.2952,-110 525.2952,-116 525.2952,-116 525.2952,-207 525.2952,-207 525.2952,-213 519.2952,-219 513.2952,-219 513.2952,-219 32.7503,-219 32.7503,-219 26.7503,-219 20.7503,-213 20.7503,-207 20.7503,-207 20.7503,-116 20.7503,-116 20.7503,-110 26.7503,-104 32.7503,-104"/>
<text text-anchor="middle" x="273.0228" y="-206.9" font-family="Helvetica,sans-Serif" font-weight="bold" font-size="9.00" fill="#000000">components</text>
</g>
<g id="clust4" class="cluster">
<title>cluster_src/gameCore</title>
<path fill="#ffffff" stroke="#000000" stroke-width="2" d="M578.0539,-282C578.0539,-282 802.0651,-282 802.0651,-282 808.0651,-282 814.0651,-288 814.0651,-294 814.0651,-294 814.0651,-447 814.0651,-447 814.0651,-453 808.0651,-459 802.0651,-459 802.0651,-459 578.0539,-459 578.0539,-459 572.0539,-459 566.0539,-453 566.0539,-447 566.0539,-447 566.0539,-294 566.0539,-294 566.0539,-288 572.0539,-282 578.0539,-282"/>
<text text-anchor="middle" x="690.0595" y="-446.9" font-family="Helvetica,sans-Serif" font-weight="bold" font-size="9.00" fill="#000000">gameCore</text>
</g>
<!-- src/actions/actionEndTurn.ts -->
<g id="node1" class="node">
<title>src/actions/actionEndTurn.ts</title>
<g id="a_node1"><a xlink:href="src/actions/actionEndTurn.ts" xlink:title="actionEndTurn.ts">
<path fill="#ddfeff" stroke="#000000" d="M515.6114,-346.3011C515.6114,-346.3011 443.976,-346.3011 443.976,-346.3011 440.8756,-346.3011 437.7753,-343.2007 437.7753,-340.1004 437.7753,-340.1004 437.7753,-333.8996 437.7753,-333.8996 437.7753,-330.7993 440.8756,-327.6989 443.976,-327.6989 443.976,-327.6989 515.6114,-327.6989 515.6114,-327.6989 518.7118,-327.6989 521.8121,-330.7993 521.8121,-333.8996 521.8121,-333.8996 521.8121,-340.1004 521.8121,-340.1004 521.8121,-343.2007 518.7118,-346.3011 515.6114,-346.3011"/>
<text text-anchor="start" x="445.7845" y="-334.3" font-family="Helvetica,sans-Serif" font-size="9.00" fill="#000000">actionEndTurn.ts</text>
</a>
</g>
</g>
<!-- src/gameCore/players.ts -->
<g id="node2" class="node">
<title>src/gameCore/players.ts</title>
<g id="a_node2"><a xlink:href="src/gameCore/players.ts" xlink:title="players.ts">
<path fill="#ddfeff" stroke="#000000" d="M706.1196,-370.3011C706.1196,-370.3011 664.5071,-370.3011 664.5071,-370.3011 661.4068,-370.3011 658.3064,-367.2007 658.3064,-364.1004 658.3064,-364.1004 658.3064,-357.8996 658.3064,-357.8996 658.3064,-354.7993 661.4068,-351.6989 664.5071,-351.6989 664.5071,-351.6989 706.1196,-351.6989 706.1196,-351.6989 709.2199,-351.6989 712.3203,-354.7993 712.3203,-357.8996 712.3203,-357.8996 712.3203,-364.1004 712.3203,-364.1004 712.3203,-367.2007 709.2199,-370.3011 706.1196,-370.3011"/>
<text text-anchor="start" x="666.061" y="-358.3" font-family="Helvetica,sans-Serif" font-size="9.00" fill="#000000">players.ts</text>
</a>
</g>
</g>
<!-- src/actions/actionEndTurn.ts&#45;&gt;src/gameCore/players.ts -->
<g id="edge1" class="edge">
<title>src/actions/actionEndTurn.ts-&gt;src/gameCore/players.ts</title>
<path fill="none" stroke="#000000" stroke-width="2" stroke-opacity="0.200000" d="M522.0746,-337.3754C535.2402,-335.3456 548.7333,-330.6994 558.0539,-321 573.3432,-305.0893 549.2406,-286.2908 566.0539,-272 592.8092,-249.2587 618.1427,-249.4519 645.061,-272 670.3239,-293.1615 639.2343,-317.9523 658.061,-345 658.6095,-345.788 659.2104,-346.5431 659.8539,-347.266"/>
<polygon fill="#000000" fill-opacity="0.200000" stroke="#000000" stroke-width="2" stroke-opacity="0.200000" points="658.7596,-349.1082 664.6166,-351.5793 661.579,-345.9951 658.7596,-349.1082"/>
</g>
<!-- src/gameCore/collectionUtils.ts -->
<g id="node21" class="node">
<title>src/gameCore/collectionUtils.ts</title>
<g id="a_node21"><a xlink:href="src/gameCore/collectionUtils.ts" xlink:title="collectionUtils.ts">
<path fill="#ddfeff" stroke="#000000" d="M800.1157,-370.3011C800.1157,-370.3011 731.5151,-370.3011 731.5151,-370.3011 728.4148,-370.3011 725.3144,-367.2007 725.3144,-364.1004 725.3144,-364.1004 725.3144,-357.8996 725.3144,-357.8996 725.3144,-354.7993 728.4148,-351.6989 731.5151,-351.6989 731.5151,-351.6989 800.1157,-351.6989 800.1157,-351.6989 803.216,-351.6989 806.3164,-354.7993 806.3164,-357.8996 806.3164,-357.8996 806.3164,-364.1004 806.3164,-364.1004 806.3164,-367.2007 803.216,-370.3011 800.1157,-370.3011"/>
<text text-anchor="start" x="733.5657" y="-358.3" font-family="Helvetica,sans-Serif" font-size="9.00" fill="#000000">collectionUtils.ts</text>
</a>
</g>
</g>
<!-- src/gameCore/players.ts&#45;&gt;src/gameCore/collectionUtils.ts -->
<g id="edge28" class="edge">
<title>src/gameCore/players.ts-&gt;src/gameCore/collectionUtils.ts</title>
<path fill="none" stroke="#000000" stroke-width="2" stroke-opacity="0.200000" d="M712.5677,-361C714.7486,-361 716.9865,-361 719.2518,-361"/>
<polygon fill="#000000" fill-opacity="0.200000" stroke="#000000" stroke-width="2" stroke-opacity="0.200000" points="719.2917,-363.1001 725.2917,-361 719.2916,-358.9001 719.2917,-363.1001"/>
</g>
<!-- src/actions/actionFlipCard.ts -->
<g id="node3" class="node">
<title>src/actions/actionFlipCard.ts</title>
<g id="a_node3"><a xlink:href="src/actions/actionFlipCard.ts" xlink:title="actionFlipCard.ts">
<path fill="#ddfeff" stroke="#000000" d="M515.099,-408.3011C515.099,-408.3011 444.4884,-408.3011 444.4884,-408.3011 441.3881,-408.3011 438.2877,-405.2007 438.2877,-402.1004 438.2877,-402.1004 438.2877,-395.8996 438.2877,-395.8996 438.2877,-392.7993 441.3881,-389.6989 444.4884,-389.6989 444.4884,-389.6989 515.099,-389.6989 515.099,-389.6989 518.1993,-389.6989 521.2997,-392.7993 521.2997,-395.8996 521.2997,-395.8996 521.2997,-402.1004 521.2997,-402.1004 521.2997,-405.2007 518.1993,-408.3011 515.099,-408.3011"/>
<text text-anchor="start" x="446.0414" y="-396.3" font-family="Helvetica,sans-Serif" font-size="9.00" fill="#000000">actionFlipCard.ts</text>
</a>
</g>
</g>
<!-- src/actions/actionHideAll.ts -->
<g id="node4" class="node">
<title>src/actions/actionHideAll.ts</title>
<g id="a_node4"><a xlink:href="src/actions/actionHideAll.ts" xlink:title="actionHideAll.ts">
<path fill="#ddfeff" stroke="#000000" d="M512.5994,-253.3011C512.5994,-253.3011 446.988,-253.3011 446.988,-253.3011 443.8877,-253.3011 440.7873,-250.2007 440.7873,-247.1004 440.7873,-247.1004 440.7873,-240.8996 440.7873,-240.8996 440.7873,-237.7993 443.8877,-234.6989 446.988,-234.6989 446.988,-234.6989 512.5994,-234.6989 512.5994,-234.6989 515.6997,-234.6989 518.8001,-237.7993 518.8001,-240.8996 518.8001,-240.8996 518.8001,-247.1004 518.8001,-247.1004 518.8001,-250.2007 515.6997,-253.3011 512.5994,-253.3011"/>
<text text-anchor="start" x="448.7905" y="-241.3" font-family="Helvetica,sans-Serif" font-size="9.00" fill="#000000">actionHideAll.ts</text>
</a>
</g>
</g>
<!-- src/actions/actionPlaceMarker.ts -->
<g id="node5" class="node">
<title>src/actions/actionPlaceMarker.ts</title>
<g id="a_node5"><a xlink:href="src/actions/actionPlaceMarker.ts" xlink:title="actionPlaceMarker.ts">
<path fill="#ddfeff" stroke="#000000" d="M523.6026,-284.3011C523.6026,-284.3011 435.9848,-284.3011 435.9848,-284.3011 432.8845,-284.3011 429.7841,-281.2007 429.7841,-278.1004 429.7841,-278.1004 429.7841,-271.8996 429.7841,-271.8996 429.7841,-268.7993 432.8845,-265.6989 435.9848,-265.6989 435.9848,-265.6989 523.6026,-265.6989 523.6026,-265.6989 526.7029,-265.6989 529.8033,-268.7993 529.8033,-271.8996 529.8033,-271.8996 529.8033,-278.1004 529.8033,-278.1004 529.8033,-281.2007 526.7029,-284.3011 523.6026,-284.3011"/>
<text text-anchor="start" x="437.7889" y="-272.3" font-family="Helvetica,sans-Serif" font-size="9.00" fill="#000000">actionPlaceMarker.ts</text>
</a>
</g>
</g>
<!-- src/gameCore/deck.ts -->
<g id="node6" class="node">
<title>src/gameCore/deck.ts</title>
<g id="a_node6"><a xlink:href="src/gameCore/deck.ts" xlink:title="deck.ts">
<path fill="#ddfeff" stroke="#000000" d="M706.1126,-339.3011C706.1126,-339.3011 664.5141,-339.3011 664.5141,-339.3011 661.4137,-339.3011 658.3133,-336.2007 658.3133,-333.1004 658.3133,-333.1004 658.3133,-326.8996 658.3133,-326.8996 658.3133,-323.7993 661.4137,-320.6989 664.5141,-320.6989 664.5141,-320.6989 706.1126,-320.6989 706.1126,-320.6989 709.213,-320.6989 712.3133,-323.7993 712.3133,-326.8996 712.3133,-326.8996 712.3133,-333.1004 712.3133,-333.1004 712.3133,-336.2007 709.213,-339.3011 706.1126,-339.3011"/>
<text text-anchor="start" x="671.0591" y="-327.3" font-family="Helvetica,sans-Serif" font-size="9.00" fill="#000000">deck.ts</text>
</a>
</g>
</g>
<!-- src/actions/actionPlaceMarker.ts&#45;&gt;src/gameCore/deck.ts -->
<g id="edge2" class="edge">
<title>src/actions/actionPlaceMarker.ts-&gt;src/gameCore/deck.ts</title>
<path fill="none" stroke="#000000" stroke-width="2" stroke-opacity="0.200000" d="M529.8386,-267.5439C539.387,-265.3494 549.1681,-262.5505 558.0539,-259 561.9475,-257.4443 562.0235,-255.1559 566.0539,-254 599.8074,-244.3196 614.9768,-235.8905 645.061,-254 666.8214,-267.0989 677.4359,-296.3472 682.109,-314.4989"/>
<polygon fill="#000000" fill-opacity="0.200000" stroke="#000000" stroke-width="2" stroke-opacity="0.200000" points="680.1374,-315.2843 683.5715,-320.6338 684.2229,-314.3104 680.1374,-315.2843"/>
</g>
<!-- src/gameCore/deck.ts&#45;&gt;src/gameCore/collectionUtils.ts -->
<g id="edge24" class="edge">
<title>src/gameCore/deck.ts-&gt;src/gameCore/collectionUtils.ts</title>
<path fill="none" stroke="#000000" stroke-width="2" stroke-opacity="0.200000" d="M709.904,-339.4695C718.0941,-342.6233 727.3089,-346.1718 735.8593,-349.4644"/>
<polygon fill="#000000" fill-opacity="0.200000" stroke="#000000" stroke-width="2" stroke-opacity="0.200000" points="735.298,-351.4985 741.6519,-351.695 736.8074,-347.5791 735.298,-351.4985"/>
</g>
<!-- src/actions/actionRevealAfterGameOver.ts -->
<g id="node7" class="node">
<title>src/actions/actionRevealAfterGameOver.ts</title>
<g id="a_node7"><a xlink:href="src/actions/actionRevealAfterGameOver.ts" xlink:title="actionRevealAfterGameOver.ts">
<path fill="#ddfeff" stroke="#000000" d="M543.6142,-315.3011C543.6142,-315.3011 415.9732,-315.3011 415.9732,-315.3011 412.8728,-315.3011 409.7725,-312.2007 409.7725,-309.1004 409.7725,-309.1004 409.7725,-302.8996 409.7725,-302.8996 409.7725,-299.7993 412.8728,-296.6989 415.9732,-296.6989 415.9732,-296.6989 543.6142,-296.6989 543.6142,-296.6989 546.7146,-296.6989 549.8149,-299.7993 549.8149,-302.8996 549.8149,-302.8996 549.8149,-309.1004 549.8149,-309.1004 549.8149,-312.2007 546.7146,-315.3011 543.6142,-315.3011"/>
<text text-anchor="start" x="417.5335" y="-303.3" font-family="Helvetica,sans-Serif" font-size="9.00" fill="#000000">actionRevealAfterGameOver.ts</text>
</a>
</g>
</g>
<!-- src/actions/actionTakeWonCard.ts -->
<g id="node8" class="node">
<title>src/actions/actionTakeWonCard.ts</title>
<g id="a_node8"><a xlink:href="src/actions/actionTakeWonCard.ts" xlink:title="actionTakeWonCard.ts">
<path fill="#ddfeff" stroke="#000000" d="M527.1088,-377.3011C527.1088,-377.3011 432.4786,-377.3011 432.4786,-377.3011 429.3783,-377.3011 426.2779,-374.2007 426.2779,-371.1004 426.2779,-371.1004 426.2779,-364.8996 426.2779,-364.8996 426.2779,-361.7993 429.3783,-358.6989 432.4786,-358.6989 432.4786,-358.6989 527.1088,-358.6989 527.1088,-358.6989 530.2091,-358.6989 533.3095,-361.7993 533.3095,-364.8996 533.3095,-364.8996 533.3095,-371.1004 533.3095,-371.1004 533.3095,-374.2007 530.2091,-377.3011 527.1088,-377.3011"/>
<text text-anchor="start" x="434.0363" y="-365.3" font-family="Helvetica,sans-Serif" font-size="9.00" fill="#000000">actionTakeWonCard.ts</text>
</a>
</g>
</g>
<!-- src/actions/actionTakeWonCard.ts&#45;&gt;src/gameCore/players.ts -->
<g id="edge4" class="edge">
<title>src/actions/actionTakeWonCard.ts-&gt;src/gameCore/players.ts</title>
<path fill="none" stroke="#000000" stroke-width="2" stroke-opacity="0.200000" d="M533.699,-366.1396C542.9102,-363.4563 551.5797,-359.0461 558.0539,-352 578.6429,-329.592 543.3138,-304.2216 566.0539,-284 579.1739,-272.333 631.4136,-272.9546 645.061,-284 666.6081,-301.439 641.8434,-322.5192 658.061,-345 658.6227,-345.7787 659.235,-346.5256 659.8883,-347.2416"/>
<polygon fill="#000000" fill-opacity="0.200000" stroke="#000000" stroke-width="2" stroke-opacity="0.200000" points="658.8175,-349.1002 664.694,-351.5244 661.6118,-345.9647 658.8175,-349.1002"/>
</g>
<!-- src/gameCore/gameState.ts -->
<g id="node9" class="node">
<title>src/gameCore/gameState.ts</title>
<g id="a_node9"><a xlink:href="src/gameCore/gameState.ts" xlink:title="gameState.ts">
<path fill="#ddfeff" stroke="#000000" d="M637.8749,-370.3011C637.8749,-370.3011 581.24,-370.3011 581.24,-370.3011 578.1397,-370.3011 575.0393,-367.2007 575.0393,-364.1004 575.0393,-364.1004 575.0393,-357.8996 575.0393,-357.8996 575.0393,-354.7993 578.1397,-351.6989 581.24,-351.6989 581.24,-351.6989 637.8749,-351.6989 637.8749,-351.6989 640.9752,-351.6989 644.0756,-354.7993 644.0756,-357.8996 644.0756,-357.8996 644.0756,-364.1004 644.0756,-364.1004 644.0756,-367.2007 640.9752,-370.3011 637.8749,-370.3011"/>
<text text-anchor="start" x="583.0484" y="-358.3" font-family="Helvetica,sans-Serif" font-size="9.00" fill="#000000">gameState.ts</text>
</a>
</g>
</g>
<!-- src/actions/actionTakeWonCard.ts&#45;&gt;src/gameCore/gameState.ts -->
<g id="edge3" class="edge">
<title>src/actions/actionTakeWonCard.ts-&gt;src/gameCore/gameState.ts</title>
<path fill="none" stroke="#000000" stroke-width="2" stroke-opacity="0.200000" d="M533.3228,-365.1124C545.1039,-364.4769 557.4005,-363.8136 568.593,-363.2098"/>
<polygon fill="#000000" fill-opacity="0.200000" stroke="#000000" stroke-width="2" stroke-opacity="0.200000" points="568.809,-365.3013 574.6872,-362.881 568.5827,-361.1074 568.809,-365.3013"/>
</g>
<!-- src/gameCore/gameState.ts&#45;&gt;src/gameCore/players.ts -->
<g id="edge26" class="edge">
<title>src/gameCore/gameState.ts-&gt;src/gameCore/players.ts</title>
<path fill="none" stroke="#000000" stroke-width="2" stroke-opacity="0.200000" d="M644.3313,-361C646.9568,-361 649.6024,-361 652.217,-361"/>
<polygon fill="#000000" fill-opacity="0.200000" stroke="#000000" stroke-width="2" stroke-opacity="0.200000" points="652.2379,-363.1001 658.2378,-361 652.2378,-358.9001 652.2379,-363.1001"/>
</g>
<!-- src/gameCore/gameState.ts&#45;&gt;src/gameCore/deck.ts -->
<g id="edge25" class="edge">
<title>src/gameCore/gameState.ts-&gt;src/gameCore/deck.ts</title>
<path fill="none" stroke="#000000" stroke-width="2" stroke-opacity="0.200000" d="M632.6984,-351.5305C640.2573,-348.4373 648.7439,-344.9645 656.6585,-341.7258"/>
<polygon fill="#000000" fill-opacity="0.200000" stroke="#000000" stroke-width="2" stroke-opacity="0.200000" points="657.8167,-343.5209 662.5745,-339.305 656.2261,-339.6338 657.8167,-343.5209"/>
</g>
<!-- src/actions/actions.ts -->
<g id="node10" class="node">
<title>src/actions/actions.ts</title>
<g id="a_node10"><a xlink:href="src/actions/actions.ts" xlink:title="actions.ts">
<path fill="#ccffcc" stroke="#000000" d="M372.0847,-377.3011C372.0847,-377.3011 330.4668,-377.3011 330.4668,-377.3011 327.3664,-377.3011 324.266,-374.2007 324.266,-371.1004 324.266,-371.1004 324.266,-364.8996 324.266,-364.8996 324.266,-361.7993 327.3664,-358.6989 330.4668,-358.6989 330.4668,-358.6989 372.0847,-358.6989 372.0847,-358.6989 375.1851,-358.6989 378.2855,-361.7993 378.2855,-364.8996 378.2855,-364.8996 378.2855,-371.1004 378.2855,-371.1004 378.2855,-374.2007 375.1851,-377.3011 372.0847,-377.3011"/>
<text text-anchor="start" x="332.2709" y="-365.3" font-family="Helvetica,sans-Serif" font-size="9.00" fill="#000000">actions.ts</text>
</a>
</g>
</g>
<!-- src/actions/reducerFunction.ts -->
<g id="node11" class="node">
<title>src/actions/reducerFunction.ts</title>
<g id="a_node11"><a xlink:href="src/actions/reducerFunction.ts" xlink:title="reducerFunction.ts">
<path fill="#ddfeff" stroke="#000000" d="M390.0918,-315.3011C390.0918,-315.3011 312.4597,-315.3011 312.4597,-315.3011 309.3593,-315.3011 306.259,-312.2007 306.259,-309.1004 306.259,-309.1004 306.259,-302.8996 306.259,-302.8996 306.259,-299.7993 309.3593,-296.6989 312.4597,-296.6989 312.4597,-296.6989 390.0918,-296.6989 390.0918,-296.6989 393.1922,-296.6989 396.2925,-299.7993 396.2925,-302.8996 396.2925,-302.8996 396.2925,-309.1004 396.2925,-309.1004 396.2925,-312.2007 393.1922,-315.3011 390.0918,-315.3011"/>
<text text-anchor="start" x="314.018" y="-303.3" font-family="Helvetica,sans-Serif" font-size="9.00" fill="#000000">reducerFunction.ts</text>
</a>
</g>
</g>
<!-- src/actions/reducerFunction.ts&#45;&gt;src/actions/actionEndTurn.ts -->
<g id="edge5" class="edge">
<title>src/actions/reducerFunction.ts-&gt;src/actions/actionEndTurn.ts</title>
<path fill="none" stroke="#000000" stroke-width="2" stroke-opacity="0.200000" d="M386.9751,-315.3608C394.4202,-317.2655 402.2257,-319.2275 409.5335,-321 416.6572,-322.7278 424.2006,-324.5029 431.5984,-326.2131"/>
<polygon fill="#000000" fill-opacity="0.200000" stroke="#000000" stroke-width="2" stroke-opacity="0.200000" points="431.4479,-328.3333 437.766,-327.632 432.3895,-324.2402 431.4479,-328.3333"/>
</g>
<!-- src/actions/reducerFunction.ts&#45;&gt;src/actions/actionFlipCard.ts -->
<g id="edge6" class="edge">
<title>src/actions/reducerFunction.ts-&gt;src/actions/actionFlipCard.ts</title>
<path fill="none" stroke="#000000" stroke-width="2" stroke-opacity="0.200000" d="M362.4982,-315.5242C372.4481,-324.423 386.8611,-338.4823 396.5335,-353 404.5905,-365.0932 398.3531,-373.7178 409.5335,-383 415.9765,-388.3491 423.8537,-391.9948 431.9747,-394.4621"/>
<polygon fill="#000000" fill-opacity="0.200000" stroke="#000000" stroke-width="2" stroke-opacity="0.200000" points="431.8739,-396.6088 438.2126,-396.128 432.9576,-392.551 431.8739,-396.6088"/>
</g>
<!-- src/actions/reducerFunction.ts&#45;&gt;src/actions/actionHideAll.ts -->
<g id="edge7" class="edge">
<title>src/actions/reducerFunction.ts-&gt;src/actions/actionHideAll.ts</title>
<path fill="none" stroke="#000000" stroke-width="2" stroke-opacity="0.200000" d="M360.6586,-296.3638C371.4685,-285.8318 390.2349,-269.2305 409.5335,-260 417.3277,-256.272 426.03,-253.391 434.5832,-251.1714"/>
<polygon fill="#000000" fill-opacity="0.200000" stroke="#000000" stroke-width="2" stroke-opacity="0.200000" points="435.1352,-253.1984 440.4678,-249.738 434.1412,-249.1177 435.1352,-253.1984"/>
</g>
<!-- src/actions/reducerFunction.ts&#45;&gt;src/actions/actionPlaceMarker.ts -->
<g id="edge8" class="edge">
<title>src/actions/reducerFunction.ts-&gt;src/actions/actionPlaceMarker.ts</title>
<path fill="none" stroke="#000000" stroke-width="2" stroke-opacity="0.200000" d="M386.9751,-296.6392C394.4202,-294.7345 402.2257,-292.7725 409.5335,-291 416.6572,-289.2722 424.2006,-287.4971 431.5984,-285.7869"/>
<polygon fill="#000000" fill-opacity="0.200000" stroke="#000000" stroke-width="2" stroke-opacity="0.200000" points="432.3895,-287.7598 437.766,-284.368 431.4479,-283.6667 432.3895,-287.7598"/>
</g>
<!-- src/actions/reducerFunction.ts&#45;&gt;src/actions/actionRevealAfterGameOver.ts -->
<g id="edge9" class="edge">
<title>src/actions/reducerFunction.ts-&gt;src/actions/actionRevealAfterGameOver.ts</title>
<path fill="none" stroke="#000000" stroke-width="2" stroke-opacity="0.200000" d="M396.5864,-306C398.8131,-306 401.0732,-306 403.3546,-306"/>
<polygon fill="#000000" fill-opacity="0.200000" stroke="#000000" stroke-width="2" stroke-opacity="0.200000" points="403.4348,-308.1001 409.4348,-306 403.4348,-303.9001 403.4348,-308.1001"/>
</g>
<!-- src/actions/reducerFunction.ts&#45;&gt;src/actions/actionTakeWonCard.ts -->
<g id="edge10" class="edge">
<title>src/actions/reducerFunction.ts-&gt;src/actions/actionTakeWonCard.ts</title>
<path fill="none" stroke="#000000" stroke-width="2" stroke-opacity="0.200000" d="M360.6586,-315.6362C371.4685,-326.1682 390.2349,-342.7695 409.5335,-352 413.1732,-353.7408 417.0108,-355.297 420.9389,-356.6874"/>
<polygon fill="#000000" fill-opacity="0.200000" stroke="#000000" stroke-width="2" stroke-opacity="0.200000" points="420.39,-358.7177 426.746,-358.608 421.7089,-354.7301 420.39,-358.7177"/>
</g>
<!-- src/components/App.css -->
<g id="node12" class="node">
<title>src/components/App.css</title>
<g id="a_node12"><a xlink:href="src/components/App.css" xlink:title="App.css">
<path fill="#ffffcc" stroke="#000000" d="M258.067,-130.3011C258.067,-130.3011 216.4685,-130.3011 216.4685,-130.3011 213.3681,-130.3011 210.2677,-127.2007 210.2677,-124.1004 210.2677,-124.1004 210.2677,-117.8996 210.2677,-117.8996 210.2677,-114.7993 213.3681,-111.6989 216.4685,-111.6989 216.4685,-111.6989 258.067,-111.6989 258.067,-111.6989 261.1674,-111.6989 264.2677,-114.7993 264.2677,-117.8996 264.2677,-117.8996 264.2677,-124.1004 264.2677,-124.1004 264.2677,-127.2007 261.1674,-130.3011 258.067,-130.3011"/>
<text text-anchor="start" x="221.263" y="-118.3" font-family="Helvetica,sans-Serif" font-size="9.00" fill="#000000">App.css</text>
</a>
</g>
</g>
<!-- src/components/App.test.tsx -->
<g id="node13" class="node">
<title>src/components/App.test.tsx</title>
<g id="a_node13"><a xlink:href="src/components/App.test.tsx" xlink:title="App.test.tsx">
<path fill="#bbfeff" stroke="#000000" d="M85.575,-145.3011C85.575,-145.3011 34.9425,-145.3011 34.9425,-145.3011 31.8422,-145.3011 28.7418,-142.2007 28.7418,-139.1004 28.7418,-139.1004 28.7418,-132.8996 28.7418,-132.8996 28.7418,-129.7993 31.8422,-126.6989 34.9425,-126.6989 34.9425,-126.6989 85.575,-126.6989 85.575,-126.6989 88.6753,-126.6989 91.7757,-129.7993 91.7757,-132.8996 91.7757,-132.8996 91.7757,-139.1004 91.7757,-139.1004 91.7757,-142.2007 88.6753,-145.3011 85.575,-145.3011"/>
<text text-anchor="start" x="36.7503" y="-133.3" font-family="Helvetica,sans-Serif" font-size="9.00" fill="#000000">App.test.tsx</text>
</a>
</g>
</g>
<!-- src/components/App.tsx -->
<g id="node14" class="node">
<title>src/components/App.tsx</title>
<g id="a_node14"><a xlink:href="src/components/App.tsx" xlink:title="App.tsx">
<path fill="#bbfeff" stroke="#000000" d="M165.3168,-145.3011C165.3168,-145.3011 123.7182,-145.3011 123.7182,-145.3011 120.6179,-145.3011 117.5175,-142.2007 117.5175,-139.1004 117.5175,-139.1004 117.5175,-132.8996 117.5175,-132.8996 117.5175,-129.7993 120.6179,-126.6989 123.7182,-126.6989 123.7182,-126.6989 165.3168,-126.6989 165.3168,-126.6989 168.4171,-126.6989 171.5175,-129.7993 171.5175,-132.8996 171.5175,-132.8996 171.5175,-139.1004 171.5175,-139.1004 171.5175,-142.2007 168.4171,-145.3011 165.3168,-145.3011"/>
<text text-anchor="start" x="129.5122" y="-133.3" font-family="Helvetica,sans-Serif" font-size="9.00" fill="#000000">App.tsx</text>
</a>
</g>
</g>
<!-- src/components/App.test.tsx&#45;&gt;src/components/App.tsx -->
<g id="edge11" class="edge">
<title>src/components/App.test.tsx-&gt;src/components/App.tsx</title>
<path fill="none" stroke="#000000" stroke-width="2" stroke-opacity="0.200000" d="M92.1134,-136C98.3348,-136 104.8747,-136 111.1439,-136"/>
<polygon fill="#000000" fill-opacity="0.200000" stroke="#000000" stroke-width="2" stroke-opacity="0.200000" points="111.3011,-138.1001 117.3011,-136 111.301,-133.9001 111.3011,-138.1001"/>
</g>
<!-- src/components/App.tsx&#45;&gt;src/components/App.css -->
<g id="edge12" class="edge">
<title>src/components/App.tsx-&gt;src/components/App.css</title>
<path fill="none" stroke="#000000" stroke-width="2" stroke-opacity="0.200000" d="M171.844,-131.5806C181.9391,-129.948 193.4919,-128.0796 204.0521,-126.3718"/>
<polygon fill="#000000" fill-opacity="0.200000" stroke="#000000" stroke-width="2" stroke-opacity="0.200000" points="204.5488,-128.4188 210.1366,-125.3878 203.8782,-124.2727 204.5488,-128.4188"/>
</g>
<!-- src/components/LobbyControls.tsx -->
<g id="node15" class="node">
<title>src/components/LobbyControls.tsx</title>
<g id="a_node15"><a xlink:href="src/components/LobbyControls.tsx" xlink:title="LobbyControls.tsx">
<path fill="#bbfeff" stroke="#000000" d="M275.0823,-161.3011C275.0823,-161.3011 199.4532,-161.3011 199.4532,-161.3011 196.3528,-161.3011 193.2524,-158.2007 193.2524,-155.1004 193.2524,-155.1004 193.2524,-148.8996 193.2524,-148.8996 193.2524,-145.7993 196.3528,-142.6989 199.4532,-142.6989 199.4532,-142.6989 275.0823,-142.6989 275.0823,-142.6989 278.1827,-142.6989 281.2831,-145.7993 281.2831,-148.8996 281.2831,-148.8996 281.2831,-155.1004 281.2831,-155.1004 281.2831,-158.2007 278.1827,-161.3011 275.0823,-161.3011"/>
<text text-anchor="start" x="201.2601" y="-149.3" font-family="Helvetica,sans-Serif" font-size="9.00" fill="#000000">LobbyControls.tsx</text>
</a>
</g>
</g>
<!-- src/components/App.tsx&#45;&gt;src/components/LobbyControls.tsx -->
<g id="edge13" class="edge">
<title>src/components/App.tsx-&gt;src/components/LobbyControls.tsx</title>
<path fill="none" stroke="#000000" stroke-width="2" stroke-opacity="0.200000" d="M171.844,-140.714C176.6064,-141.5355 181.6933,-142.4131 186.8473,-143.3022"/>
<polygon fill="#000000" fill-opacity="0.200000" stroke="#000000" stroke-width="2" stroke-opacity="0.200000" points="186.6434,-145.3979 192.913,-144.3485 187.3574,-141.259 186.6434,-145.3979"/>
</g>
<!-- src/components/MemoryRingGame.tsx -->
<g id="node16" class="node">
<title>src/components/MemoryRingGame.tsx</title>
<g id="a_node16"><a xlink:href="src/components/MemoryRingGame.tsx" xlink:title="MemoryRingGame.tsx">
<path fill="#bbfeff" stroke="#000000" d="M283.5687,-192.3011C283.5687,-192.3011 190.9668,-192.3011 190.9668,-192.3011 187.8664,-192.3011 184.7661,-189.2007 184.7661,-186.1004 184.7661,-186.1004 184.7661,-179.8996 184.7661,-179.8996 184.7661,-176.7993 187.8664,-173.6989 190.9668,-173.6989 190.9668,-173.6989 283.5687,-173.6989 283.5687,-173.6989 286.6691,-173.6989 289.7694,-176.7993 289.7694,-179.8996 289.7694,-179.8996 289.7694,-186.1004 289.7694,-186.1004 289.7694,-189.2007 286.6691,-192.3011 283.5687,-192.3011"/>
<text text-anchor="start" x="192.5175" y="-180.3" font-family="Helvetica,sans-Serif" font-size="9.00" fill="#000000">MemoryRingGame.tsx</text>
</a>
</g>
</g>
<!-- src/components/App.tsx&#45;&gt;src/components/MemoryRingGame.tsx -->
<g id="edge14" class="edge">
<title>src/components/App.tsx-&gt;src/components/MemoryRingGame.tsx</title>
<path fill="none" stroke="#000000" stroke-width="2" stroke-opacity="0.200000" d="M154.6555,-145.5602C162.3388,-152.3615 173.4337,-161.2732 184.5175,-167 187.6766,-168.6322 191.0299,-170.1277 194.4545,-171.4918"/>
<polygon fill="#000000" fill-opacity="0.200000" stroke="#000000" stroke-width="2" stroke-opacity="0.200000" points="193.908,-173.5294 200.2634,-173.6642 195.3792,-169.5955 193.908,-173.5294"/>
</g>
<!-- src/components/MemoryRingGame.tsx&#45;&gt;src/gameCore/deck.ts -->
<g id="edge16" class="edge">
<title>src/components/MemoryRingGame.tsx-&gt;src/gameCore/deck.ts</title>
<path fill="none" stroke="#000000" stroke-width="2" stroke-opacity="0.200000" d="M271.4645,-192.3477C280.0806,-194.4527 289.3466,-196.5038 298.018,-198 374.5702,-211.2087 583.9809,-192.0008 645.061,-240 668.7417,-258.6093 678.8856,-294.1553 682.9139,-314.5643"/>
<polygon fill="#000000" fill-opacity="0.200000" stroke="#000000" stroke-width="2" stroke-opacity="0.200000" points="680.8753,-315.0914 684.0163,-320.618 685.0073,-314.3388 680.8753,-315.0914"/>
</g>
<!-- src/components/MemoryRingGame.tsx&#45;&gt;src/gameCore/gameState.ts -->
<g id="edge17" class="edge">
<title>src/components/MemoryRingGame.tsx-&gt;src/gameCore/gameState.ts</title>
<path fill="none" stroke="#000000" stroke-width="2" stroke-opacity="0.200000" d="M238.0031,-192.4762C241.5059,-234.8679 258.0171,-406.4093 298.018,-438 320.6925,-455.9072 536.3358,-457.0558 558.0539,-438 578.6072,-419.9662 548.9803,-398.3576 566.0539,-377 567.1845,-375.5857 568.4524,-374.2964 569.8248,-373.1211"/>
<polygon fill="#000000" fill-opacity="0.200000" stroke="#000000" stroke-width="2" stroke-opacity="0.200000" points="571.1746,-374.7381 574.8454,-369.5481 568.7393,-371.3161 571.1746,-374.7381"/>
</g>
<!-- src/components/MemoryRingGame.tsx&#45;&gt;src/actions/reducerFunction.ts -->
<g id="edge15" class="edge">
<title>src/components/MemoryRingGame.tsx-&gt;src/actions/reducerFunction.ts</title>
<path fill="none" stroke="#000000" stroke-width="2" stroke-opacity="0.200000" d="M246.2138,-192.6516C266.1938,-214.2075 314.5303,-266.3564 338.0203,-291.6991"/>
<polygon fill="#000000" fill-opacity="0.200000" stroke="#000000" stroke-width="2" stroke-opacity="0.200000" points="336.7524,-293.4203 342.3713,-296.3932 339.8327,-290.5652 336.7524,-293.4203"/>
</g>
<!-- src/components/CardRingView.tsx -->
<g id="node17" class="node">
<title>src/components/CardRingView.tsx</title>
<g id="a_node17"><a xlink:href="src/components/CardRingView.tsx" xlink:title="CardRingView.tsx">
<path fill="#bbfeff" stroke="#000000" d="M388.5779,-161.3011C388.5779,-161.3011 313.9736,-161.3011 313.9736,-161.3011 310.8733,-161.3011 307.7729,-158.2007 307.7729,-155.1004 307.7729,-155.1004 307.7729,-148.8996 307.7729,-148.8996 307.7729,-145.7993 310.8733,-142.6989 313.9736,-142.6989 313.9736,-142.6989 388.5779,-142.6989 388.5779,-142.6989 391.6782,-142.6989 394.7786,-145.7993 394.7786,-148.8996 394.7786,-148.8996 394.7786,-155.1004 394.7786,-155.1004 394.7786,-158.2007 391.6782,-161.3011 388.5779,-161.3011"/>
<text text-anchor="start" x="315.525" y="-149.3" font-family="Helvetica,sans-Serif" font-size="9.00" fill="#000000">CardRingView.tsx</text>
</a>
</g>
</g>
<!-- src/components/MemoryRingGame.tsx&#45;&gt;src/components/CardRingView.tsx -->
<g id="edge19" class="edge">
<title>src/components/MemoryRingGame.tsx-&gt;src/components/CardRingView.tsx</title>
<path fill="none" stroke="#000000" stroke-width="2" stroke-opacity="0.200000" d="M271.7833,-173.6149C284.1731,-170.2459 298.2508,-166.418 311.0809,-162.9294"/>
<polygon fill="#000000" fill-opacity="0.200000" stroke="#000000" stroke-width="2" stroke-opacity="0.200000" points="311.6388,-164.9541 316.8775,-161.3532 310.5367,-160.9012 311.6388,-164.9541"/>
</g>
<!-- src/gameCore/instructions.ts -->
<g id="node18" class="node">
<title>src/gameCore/instructions.ts</title>
<g id="a_node18"><a xlink:href="src/gameCore/instructions.ts" xlink:title="instructions.ts">
<path fill="#ddfeff" stroke="#000000" d="M638.8638,-401.3011C638.8638,-401.3011 580.2511,-401.3011 580.2511,-401.3011 577.1507,-401.3011 574.0503,-398.2007 574.0503,-395.1004 574.0503,-395.1004 574.0503,-388.8996 574.0503,-388.8996 574.0503,-385.7993 577.1507,-382.6989 580.2511,-382.6989 580.2511,-382.6989 638.8638,-382.6989 638.8638,-382.6989 641.9642,-382.6989 645.0646,-385.7993 645.0646,-388.8996 645.0646,-388.8996 645.0646,-395.1004 645.0646,-395.1004 645.0646,-398.2007 641.9642,-401.3011 638.8638,-401.3011"/>
<text text-anchor="start" x="582.0539" y="-389.3" font-family="Helvetica,sans-Serif" font-size="9.00" fill="#000000">instructions.ts</text>
</a>
</g>
</g>
<!-- src/components/MemoryRingGame.tsx&#45;&gt;src/gameCore/instructions.ts -->
<g id="edge18" class="edge">
<title>src/components/MemoryRingGame.tsx-&gt;src/gameCore/instructions.ts</title>
<path fill="none" stroke="#000000" stroke-width="2" stroke-opacity="0.200000" d="M237.9185,-192.5498C241.1003,-236.078 256.5789,-414.9857 298.018,-448 388.4098,-520.0146 468.6776,-521.2711 558.0539,-448 572.0745,-436.5059 554.2654,-421.774 566.0539,-408 566.878,-407.0371 567.7654,-406.1321 568.7052,-405.2815"/>
<polygon fill="#000000" fill-opacity="0.200000" stroke="#000000" stroke-width="2" stroke-opacity="0.200000" points="570.251,-406.7471 573.7897,-401.4662 567.7301,-403.3876 570.251,-406.7471"/>
</g>
<!-- src/components/PlayersView.tsx -->
<g id="node19" class="node">
<title>src/components/PlayersView.tsx</title>
<g id="a_node19"><a xlink:href="src/components/PlayersView.tsx" xlink:title="PlayersView.tsx">
<path fill="#bbfeff" stroke="#000000" d="M384.5797,-192.3011C384.5797,-192.3011 317.9718,-192.3011 317.9718,-192.3011 314.8715,-192.3011 311.7711,-189.2007 311.7711,-186.1004 311.7711,-186.1004 311.7711,-179.8996 311.7711,-179.8996 311.7711,-176.7993 314.8715,-173.6989 317.9718,-173.6989 317.9718,-173.6989 384.5797,-173.6989 384.5797,-173.6989 387.68,-173.6989 390.7804,-176.7993 390.7804,-179.8996 390.7804,-179.8996 390.7804,-186.1004 390.7804,-186.1004 390.7804,-189.2007 387.68,-192.3011 384.5797,-192.3011"/>
<text text-anchor="start" x="319.5242" y="-180.3" font-family="Helvetica,sans-Serif" font-size="9.00" fill="#000000">PlayersView.tsx</text>
</a>
</g>
</g>
<!-- src/components/MemoryRingGame.tsx&#45;&gt;src/components/PlayersView.tsx -->
<g id="edge20" class="edge">
<title>src/components/MemoryRingGame.tsx-&gt;src/components/PlayersView.tsx</title>
<path fill="none" stroke="#000000" stroke-width="2" stroke-opacity="0.200000" d="M289.9334,-183C295.0202,-183 300.1535,-183 305.1697,-183"/>
<polygon fill="#000000" fill-opacity="0.200000" stroke="#000000" stroke-width="2" stroke-opacity="0.200000" points="305.4488,-185.1001 311.4488,-183 305.4488,-180.9001 305.4488,-185.1001"/>
</g>
<!-- src/gameCore/instructions.ts&#45;&gt;src/gameCore/players.ts -->
<g id="edge27" class="edge">
<title>src/gameCore/instructions.ts-&gt;src/gameCore/players.ts</title>
<path fill="none" stroke="#000000" stroke-width="2" stroke-opacity="0.200000" d="M632.6984,-382.5305C640.2573,-379.4373 648.7439,-375.9645 656.6585,-372.7258"/>
<polygon fill="#000000" fill-opacity="0.200000" stroke="#000000" stroke-width="2" stroke-opacity="0.200000" points="657.8167,-374.5209 662.5745,-370.305 656.2261,-370.6338 657.8167,-374.5209"/>
</g>
<!-- src/components/PlayerView.tsx -->
<g id="node20" class="node">
<title>src/components/PlayerView.tsx</title>
<g id="a_node20"><a xlink:href="src/components/PlayerView.tsx" xlink:title="PlayerView.tsx">
<path fill="#bbfeff" stroke="#000000" d="M511.0961,-192.3011C511.0961,-192.3011 448.4913,-192.3011 448.4913,-192.3011 445.391,-192.3011 442.2906,-189.2007 442.2906,-186.1004 442.2906,-186.1004 442.2906,-179.8996 442.2906,-179.8996 442.2906,-176.7993 445.391,-173.6989 448.4913,-173.6989 448.4913,-173.6989 511.0961,-173.6989 511.0961,-173.6989 514.1964,-173.6989 517.2968,-176.7993 517.2968,-179.8996 517.2968,-179.8996 517.2968,-186.1004 517.2968,-186.1004 517.2968,-189.2007 514.1964,-192.3011 511.0961,-192.3011"/>
<text text-anchor="start" x="450.2921" y="-180.3" font-family="Helvetica,sans-Serif" font-size="9.00" fill="#000000">PlayerView.tsx</text>
</a>
</g>
</g>
<!-- src/components/PlayersView.tsx&#45;&gt;src/components/PlayerView.tsx -->
<g id="edge21" class="edge">
<title>src/components/PlayersView.tsx-&gt;src/components/PlayerView.tsx</title>
<path fill="none" stroke="#000000" stroke-width="2" stroke-opacity="0.200000" d="M390.884,-183C405.0815,-183 421.1713,-183 435.7235,-183"/>
<polygon fill="#000000" fill-opacity="0.200000" stroke="#000000" stroke-width="2" stroke-opacity="0.200000" points="435.8561,-185.1001 441.856,-183 435.856,-180.9001 435.8561,-185.1001"/>
</g>
<!-- src/gameCore/deck.test.ts -->
<g id="node22" class="node">
<title>src/gameCore/deck.test.ts</title>
<g id="a_node22"><a xlink:href="src/gameCore/deck.test.ts" xlink:title="deck.test.ts">
<path fill="#ddfeff" stroke="#000000" d="M633.8734,-432.3011C633.8734,-432.3011 585.2415,-432.3011 585.2415,-432.3011 582.1411,-432.3011 579.0408,-429.2007 579.0408,-426.1004 579.0408,-426.1004 579.0408,-419.8996 579.0408,-419.8996 579.0408,-416.7993 582.1411,-413.6989 585.2415,-413.6989 585.2415,-413.6989 633.8734,-413.6989 633.8734,-413.6989 636.9738,-413.6989 640.0741,-416.7993 640.0741,-419.8996 640.0741,-419.8996 640.0741,-426.1004 640.0741,-426.1004 640.0741,-429.2007 636.9738,-432.3011 633.8734,-432.3011"/>
<text text-anchor="start" x="586.8" y="-420.3" font-family="Helvetica,sans-Serif" font-size="9.00" fill="#000000">deck.test.ts</text>
</a>
</g>
</g>
<!-- src/gameCore/deck.test.ts&#45;&gt;src/gameCore/deck.ts -->
<g id="edge23" class="edge">
<title>src/gameCore/deck.test.ts-&gt;src/gameCore/deck.ts</title>
<path fill="none" stroke="#000000" stroke-width="2" stroke-opacity="0.200000" d="M637.7499,-413.4793C640.5023,-411.6673 643.0238,-409.5261 645.061,-407 662.4627,-385.4228 641.8434,-368.4808 658.061,-346 658.6227,-345.2213 659.235,-344.4744 659.8883,-343.7584"/>
<polygon fill="#000000" fill-opacity="0.200000" stroke="#000000" stroke-width="2" stroke-opacity="0.200000" points="661.6118,-345.0353 664.694,-339.4756 658.8175,-341.8998 661.6118,-345.0353"/>
</g>
<!-- src/gameCore/deck.test.ts&#45;&gt;src/gameCore/collectionUtils.ts -->
<g id="edge22" class="edge">
<title>src/gameCore/deck.test.ts-&gt;src/gameCore/collectionUtils.ts</title>
<path fill="none" stroke="#000000" stroke-width="2" stroke-opacity="0.200000" d="M633.2897,-413.5835C660.9836,-402.5951 706.7799,-384.4241 736.6255,-372.582"/>
<polygon fill="#000000" fill-opacity="0.200000" stroke="#000000" stroke-width="2" stroke-opacity="0.200000" points="737.5693,-374.4668 742.3718,-370.3019 736.0203,-370.5629 737.5693,-374.4668"/>
</g>
<!-- src/gameCore/phase.ts -->
<g id="node23" class="node">
<title>src/gameCore/phase.ts</title>
<g id="a_node23"><a xlink:href="src/gameCore/phase.ts" xlink:title="phase.ts">
<path fill="#ccffcc" stroke="#000000" d="M630.3567,-339.3011C630.3567,-339.3011 588.7582,-339.3011 588.7582,-339.3011 585.6578,-339.3011 582.5574,-336.2007 582.5574,-333.1004 582.5574,-333.1004 582.5574,-326.8996 582.5574,-326.8996 582.5574,-323.7993 585.6578,-320.6989 588.7582,-320.6989 588.7582,-320.6989 630.3567,-320.6989 630.3567,-320.6989 633.4571,-320.6989 636.5574,-323.7993 636.5574,-326.8996 636.5574,-326.8996 636.5574,-333.1004 636.5574,-333.1004 636.5574,-336.2007 633.4571,-339.3011 630.3567,-339.3011"/>
<text text-anchor="start" x="592.5501" y="-327.3" font-family="Helvetica,sans-Serif" font-size="9.00" fill="#000000">phase.ts</text>
</a>
</g>
</g>
<!-- src/gameCore/types.ts -->
<g id="node24" class="node">
<title>src/gameCore/types.ts</title>
<g id="a_node24"><a xlink:href="src/gameCore/types.ts" xlink:title="types.ts">
<path fill="#ccffcc" stroke="#000000" d="M630.3567,-308.3011C630.3567,-308.3011 588.7582,-308.3011 588.7582,-308.3011 585.6578,-308.3011 582.5574,-305.2007 582.5574,-302.1004 582.5574,-302.1004 582.5574,-295.8996 582.5574,-295.8996 582.5574,-292.7993 585.6578,-289.6989 588.7582,-289.6989 588.7582,-289.6989 630.3567,-289.6989 630.3567,-289.6989 633.4571,-289.6989 636.5574,-292.7993 636.5574,-295.8996 636.5574,-295.8996 636.5574,-302.1004 636.5574,-302.1004 636.5574,-305.2007 633.4571,-308.3011 630.3567,-308.3011"/>
<text text-anchor="start" x="594.0527" y="-296.3" font-family="Helvetica,sans-Serif" font-size="9.00" fill="#000000">types.ts</text>
</a>
</g>
</g>
<!-- src/index.tsx -->
<g id="node25" class="node">
<title>src/index.tsx</title>
<g id="a_node25"><a xlink:href="src/index.tsx" xlink:title="index.tsx">
<path fill="#bbfeff" stroke="#000000" d="M81.058,-96.3011C81.058,-96.3011 39.4595,-96.3011 39.4595,-96.3011 36.3591,-96.3011 33.2587,-93.2007 33.2587,-90.1004 33.2587,-90.1004 33.2587,-83.8996 33.2587,-83.8996 33.2587,-80.7993 36.3591,-77.6989 39.4595,-77.6989 39.4595,-77.6989 81.058,-77.6989 81.058,-77.6989 84.1584,-77.6989 87.2587,-80.7993 87.2587,-83.8996 87.2587,-83.8996 87.2587,-90.1004 87.2587,-90.1004 87.2587,-93.2007 84.1584,-96.3011 81.058,-96.3011"/>
<text text-anchor="start" x="42.5044" y="-84.3" font-family="Helvetica,sans-Serif" font-size="9.00" fill="#000000">index.tsx</text>
</a>
</g>
</g>
<!-- src/index.tsx&#45;&gt;src/components/App.tsx -->
<g id="edge29" class="edge">
<title>src/index.tsx-&gt;src/components/App.tsx</title>
<path fill="none" stroke="#000000" stroke-width="2" stroke-opacity="0.200000" d="M87.6806,-93.732C93.4296,-95.6714 99.3203,-98.0751 104.5175,-101 114.5066,-106.6216 124.2196,-115.0284 131.5726,-122.1938"/>
<polygon fill="#000000" fill-opacity="0.200000" stroke="#000000" stroke-width="2" stroke-opacity="0.200000" points="130.103,-123.6941 135.8272,-126.4588 133.0765,-120.7279 130.103,-123.6941"/>
</g>
<!-- src/react&#45;app&#45;env.d.ts -->
<g id="node26" class="node">
<title>src/react-app-env.d.ts</title>
<g id="a_node26"><a xlink:href="src/react-app-env.d.ts" xlink:title="react-app-env.d.ts">
<path fill="#ccffcc" stroke="#000000" d="M98.0769,-65.3011C98.0769,-65.3011 22.4406,-65.3011 22.4406,-65.3011 19.3403,-65.3011 16.2399,-62.2007 16.2399,-59.1004 16.2399,-59.1004 16.2399,-52.8996 16.2399,-52.8996 16.2399,-49.7993 19.3403,-46.6989 22.4406,-46.6989 22.4406,-46.6989 98.0769,-46.6989 98.0769,-46.6989 101.1772,-46.6989 104.2776,-49.7993 104.2776,-52.8996 104.2776,-52.8996 104.2776,-59.1004 104.2776,-59.1004 104.2776,-62.2007 101.1772,-65.3011 98.0769,-65.3011"/>
<text text-anchor="start" x="24" y="-53.3" font-family="Helvetica,sans-Serif" font-size="9.00" fill="#000000">react-app-env.d.ts</text>
</a>
</g>
</g>
<!-- src/setupTests.ts -->
<g id="node27" class="node">
<title>src/setupTests.ts</title>
<g id="a_node27"><a xlink:href="src/setupTests.ts" xlink:title="setupTests.ts">
<path fill="#ccffcc" stroke="#000000" d="M88.5746,-34.3011C88.5746,-34.3011 31.9429,-34.3011 31.9429,-34.3011 28.8425,-34.3011 25.7422,-31.2007 25.7422,-28.1004 25.7422,-28.1004 25.7422,-21.8996 25.7422,-21.8996 25.7422,-18.7993 28.8425,-15.6989 31.9429,-15.6989 31.9429,-15.6989 88.5746,-15.6989 88.5746,-15.6989 91.675,-15.6989 94.7753,-18.7993 94.7753,-21.8996 94.7753,-21.8996 94.7753,-28.1004 94.7753,-28.1004 94.7753,-31.2007 91.675,-34.3011 88.5746,-34.3011"/>
<text text-anchor="start" x="33.5013" y="-22.3" font-family="Helvetica,sans-Serif" font-size="9.00" fill="#000000">setupTests.ts</text>
</a>
</g>
</g>
</g>
</svg>